<svg width="92" height="80" viewBox="0 0 92 80" fill="none" xmlns="http://www.w3.org/2000/svg">
<path d="M89.4149 25.6573C89.6549 23.5506 89.7082 21.4339 89.5749 19.3073C89.3349 15.6006 87.9282 12.4739 85.3549 9.92727C83.6549 8.24061 81.6816 6.99061 79.4349 6.17727C76.0216 4.95061 72.5049 4.19394 68.8849 3.90727C68.0249 3.81394 67.1682 3.72061 66.3149 3.62727C64.1016 3.40727 61.8849 3.24727 59.6649 3.14727C56.8582 3.02727 54.0416 2.98061 51.2149 3.00727C48.6482 3.02727 46.0882 3.10394 43.5349 3.23727C40.7216 3.38394 37.9216 3.58061 35.1349 3.82727C32.8016 4.02727 30.4716 4.25394 28.1449 4.50727C27.5182 4.59394 26.8916 4.68061 26.2649 4.76727C25.3649 4.89394 24.4716 5.05394 23.5849 5.24727C22.2116 5.58727 20.8682 6.00394 19.5549 6.49727C18.3016 6.96394 17.0949 7.49727 15.9349 8.09727C14.2216 9.06394 12.6716 10.2406 11.2849 11.6273C9.83157 13.0939 8.72157 14.7939 7.9549 16.7273C7.1749 18.6739 6.49157 20.6639 5.9049 22.6973C5.3849 24.5106 4.9149 26.3273 4.4949 28.1473C4.06824 30.0206 3.69824 31.9039 3.3849 33.7973C3.07157 35.7239 2.8149 37.6639 2.6149 39.6173C2.40824 41.6239 2.2349 43.6339 2.0949 45.6473C1.94824 47.6806 1.97157 49.7173 2.1649 51.7573C2.3649 53.8173 2.88157 55.7873 3.7149 57.6673C4.5349 59.5206 5.68157 61.1506 7.1549 62.5573C8.68824 64.0106 10.4316 65.1206 12.3849 65.8873C13.3382 66.2473 14.3116 66.5373 15.3049 66.7573C15.2116 67.964 14.9082 69.1106 14.3949 70.1973C14.0082 71.0173 13.8349 71.864 13.8749 72.7373C13.8949 73.1506 13.9482 73.5673 14.0349 73.9873C14.0949 74.2873 14.2116 74.5773 14.3849 74.8573C14.5249 75.0773 14.7016 75.2773 14.9149 75.4573C15.1149 75.6306 15.3182 75.794 15.5249 75.9473C15.6916 76.0606 15.8682 76.1473 16.0549 76.2073C16.6882 76.414 17.3349 76.434 17.9949 76.2673C18.4482 76.1806 18.8682 76.0073 19.2549 75.7473C20.7482 74.7673 22.0616 73.584 23.1949 72.1973C24.4282 70.6973 25.5149 69.104 26.4549 67.4173C29.4616 67.7106 32.4782 67.9506 35.5049 68.1373C38.4649 68.324 41.4316 68.4506 44.4049 68.5173C46.5516 68.564 48.6949 68.564 50.8349 68.5173C52.6016 68.484 54.3549 68.4073 56.0949 68.2873C57.8082 68.1873 59.5149 68.044 61.2149 67.8573C62.4616 67.744 63.7049 67.594 64.9449 67.4073C65.8716 67.274 66.8016 67.124 67.7349 66.9573C69.1216 66.7106 70.4916 66.3706 71.8449 65.9373C73.1649 65.5373 74.4149 64.994 75.5949 64.3073C77.1282 63.414 78.4349 62.2773 79.5149 60.8973C80.9749 59.0306 82.0549 56.9473 82.7549 54.6473C83.1682 53.274 83.5949 51.9039 84.0349 50.5373C86.6482 42.4173 88.4416 34.1239 89.4149 25.6573Z" fill="white"/>
<path d="M78.8547 8.94766C77.0014 8.201 75.1014 7.65766 73.1547 7.31766C71.1814 6.991 69.2214 6.72766 67.2747 6.52766C65.5747 6.34766 63.8647 6.201 62.1447 6.08766C60.3647 6.00766 58.5847 5.92766 56.8047 5.84766C54.9514 5.81433 53.098 5.80766 51.2447 5.82766C49.5914 5.841 47.9314 5.87766 46.2647 5.93766C44.5047 6.01766 42.738 6.10433 40.9647 6.19766C39.0914 6.311 37.2147 6.44766 35.3347 6.60766C33.348 6.781 31.3614 6.961 29.3747 7.14766C27.668 7.321 25.978 7.591 24.3047 7.95766C22.3114 8.411 20.388 9.061 18.5347 9.90766C16.588 10.7943 14.8614 11.9977 13.3547 13.5177C11.968 14.8977 10.9347 16.5143 10.2547 18.3677C10.0614 18.9277 9.87132 19.491 9.68465 20.0577C9.31798 21.2043 8.96465 22.3543 8.62465 23.5077C7.92465 25.8543 7.32465 28.2243 6.82465 30.6177C6.44465 32.4643 6.12131 34.3143 5.85465 36.1677C5.48798 38.7077 5.20798 41.2677 5.01465 43.8477C4.86798 45.7677 4.81465 47.6843 4.85465 49.5977C4.87465 50.691 4.98131 51.781 5.17465 52.8677C5.35465 53.8477 5.61465 54.8043 5.95465 55.7377C6.36131 56.8243 6.90131 57.8377 7.57465 58.7777C8.65465 60.271 9.99798 61.4543 11.6047 62.3277C13.6447 63.4477 15.8314 64.1477 18.1647 64.4277C18.2314 65.661 18.158 66.8777 17.9447 68.0777C17.7047 69.431 17.318 70.7477 16.7847 72.0277C16.5514 72.5877 16.6147 73.0743 16.9747 73.4877C17.008 73.501 17.0447 73.5143 17.0847 73.5277C17.398 73.5343 17.698 73.441 17.9847 73.2477C18.858 72.621 19.6547 71.9077 20.3747 71.1077C22.1814 69.0743 23.6847 66.8477 24.8847 64.4277C26.8247 64.641 28.758 64.8243 30.6847 64.9777C32.4714 65.1443 34.258 65.2743 36.0447 65.3677C38.0714 65.5077 40.1014 65.6143 42.1347 65.6877C44.1347 65.741 46.128 65.761 48.1147 65.7477C49.4214 65.7343 50.7314 65.7177 52.0447 65.6977C54.1647 65.5977 56.288 65.4677 58.4147 65.3077C60.068 65.1677 61.7147 64.991 63.3547 64.7777C65.068 64.5643 66.7714 64.2877 68.4647 63.9477C70.458 63.561 72.3447 62.871 74.1247 61.8777C75.9847 60.831 77.4214 59.371 78.4347 57.4977C79.1014 56.2843 79.6547 55.0243 80.0947 53.7177C80.7747 51.711 81.418 49.701 82.0247 47.6877C82.6247 45.6877 83.1747 43.6743 83.6747 41.6477C84.1747 39.6343 84.6214 37.6077 85.0147 35.5677C85.4014 33.5277 85.7447 31.4877 86.0447 29.4477C86.3514 27.4143 86.6014 25.361 86.7947 23.2877C86.9814 21.3277 86.8614 19.3777 86.4347 17.4377C86.008 15.5377 85.148 13.8677 83.8547 12.4277C82.4747 10.8877 80.808 9.72766 78.8547 8.94766Z" fill="#0865D5"/>
<path d="M40.6656 51.7165C40.3656 51.7631 40.1156 51.9131 39.9156 52.1665C39.5222 52.6865 39.0822 53.1498 38.5956 53.5565C37.4289 54.5098 36.1655 54.7498 34.8055 54.2765C34.5455 54.1965 34.3122 54.0531 34.1055 53.8465C33.1522 52.8865 32.8422 51.7365 33.1755 50.3965C33.5889 48.4165 33.9889 46.4365 34.3755 44.4565C34.4289 44.1965 34.3855 43.9565 34.2455 43.7365C33.7255 42.9498 33.0289 42.7565 32.1555 43.1565C31.9222 43.2698 31.7389 43.4431 31.6055 43.6765C31.4655 43.9031 31.3655 44.1465 31.3055 44.4065C30.8122 46.5731 30.3389 48.7465 29.8855 50.9265C29.4255 53.1065 30.0189 54.9131 31.6655 56.3465C32.5055 57.0865 33.4855 57.5065 34.6055 57.6065C36.7322 57.8065 38.6655 57.2865 40.4056 56.0465C41.3856 55.3398 42.1256 54.4498 42.6256 53.3765C42.7256 53.1565 42.7122 52.9265 42.5855 52.6865C42.1655 51.8998 41.5256 51.5765 40.6656 51.7165ZM21.7655 37.0565C20.2455 36.9631 18.7155 36.9898 17.1755 37.1365C16.1289 37.2765 15.3489 37.8065 14.8355 38.7265C14.6089 39.1265 14.4522 39.5398 14.3655 39.9665C13.6055 43.5598 12.8622 47.1598 12.1355 50.7665C11.9622 51.6131 11.7455 52.4431 11.4855 53.2565C11.1855 54.1831 10.6522 54.9398 9.88555 55.5265C9.70555 55.6665 9.62888 55.8598 9.65555 56.1065C9.72888 56.8865 10.1389 57.3531 10.8855 57.5065C11.1655 57.5531 11.4355 57.5265 11.6955 57.4265C12.6689 57.0398 13.3922 56.3598 13.8655 55.3865C14.6722 53.7331 15.2089 52.0031 15.4755 50.1965H19.2155C19.3155 52.6098 20.2989 54.5498 22.1655 56.0165C22.9655 56.6565 23.8655 57.0731 24.8655 57.2665C25.1989 57.3331 25.5322 57.3998 25.8655 57.4665C26.0122 57.4798 26.1622 57.4931 26.3155 57.5065C27.3155 57.6731 28.1589 57.4098 28.8455 56.7165C29.0655 56.4965 29.1822 56.2331 29.1955 55.9265C29.2355 55.0865 28.9222 54.4931 28.2555 54.1465C28.0222 54.0265 27.7689 53.9931 27.4955 54.0465C26.4022 54.3198 25.3555 54.1698 24.3555 53.5965C24.0222 53.4165 23.7355 53.1698 23.4955 52.8565C22.7222 51.8631 22.3655 50.7265 22.4255 49.4465C23.7055 48.8198 24.7655 47.9365 25.6055 46.7965C26.3722 45.7698 26.8522 44.6265 27.0455 43.3665C27.0655 43.2598 27.0822 43.1531 27.0955 43.0465C27.3089 40.9798 26.5855 39.3198 24.9255 38.0665C23.9989 37.3731 22.9455 37.0365 21.7655 37.0565ZM16.0955 47.2165L17.2755 41.6465C17.4489 40.8598 17.9289 40.4098 18.7155 40.2965C19.4489 40.1765 20.1922 40.1198 20.9455 40.1265C22.4922 40.2465 23.4555 41.0465 23.8355 42.5265C23.9222 42.8665 23.9155 43.2131 23.8155 43.5665C23.3689 45.0931 22.3889 46.1698 20.8755 46.7965C20.3555 47.0165 19.8055 47.1531 19.2255 47.2065C18.1789 47.2065 17.1355 47.2098 16.0955 47.2165ZM34.2155 34.4965C33.2555 34.4965 32.4355 34.8331 31.7555 35.5065C31.0822 36.1865 30.7455 37.0065 30.7455 37.9665C30.7455 38.9265 31.0822 39.7431 31.7555 40.4165C32.4355 41.0965 33.2555 41.4365 34.2155 41.4365C35.1755 41.4365 35.9922 41.0965 36.6655 40.4165C37.3456 39.7431 37.6856 38.9265 37.6856 37.9665C37.6856 37.0065 37.3456 36.1865 36.6655 35.5065C35.9922 34.8331 35.1755 34.4965 34.2155 34.4965ZM34.9955 37.1365C35.2155 37.3565 35.3256 37.6231 35.3256 37.9365C35.3256 38.2498 35.2155 38.5165 34.9955 38.7365C34.7755 38.9565 34.5089 39.0665 34.1955 39.0665C33.8822 39.0665 33.6155 38.9565 33.3955 38.7365C33.1755 38.5165 33.0655 38.2498 33.0655 37.9365C33.0655 37.6231 33.1755 37.3565 33.3955 37.1365C33.6155 36.9165 33.8822 36.8065 34.1955 36.8065C34.5089 36.8065 34.7755 36.9165 34.9955 37.1365ZM31.2555 13.3465C30.5622 13.4798 30.1355 13.8865 29.9755 14.5665C29.5089 16.5531 29.0589 18.5498 28.6255 20.5565C28.4989 21.1431 28.3755 21.7331 28.2555 22.3265C28.2355 22.4065 28.2155 22.4898 28.1955 22.5765C27.8889 24.1698 27.4855 25.7998 26.9855 27.4665C26.7322 28.3198 26.2789 29.0398 25.6255 29.6265C24.4922 30.6465 23.1989 30.9631 21.7455 30.5765C21.2255 30.4298 20.8122 30.1198 20.5055 29.6465C19.9589 28.8065 19.7955 27.8865 20.0155 26.8865C20.4155 25.0731 20.8089 23.2531 21.1955 21.4265C21.5689 19.6665 21.9422 17.9565 22.3155 16.2965C22.4422 15.7098 22.5389 15.1098 22.6055 14.4965C22.6389 14.2031 22.5422 13.9598 22.3155 13.7665C21.9222 13.4131 21.4589 13.2765 20.9255 13.3565C20.2522 13.4831 19.8422 13.8865 19.6955 14.5665C19.3755 15.9998 19.0289 17.4198 18.6555 18.8265C18.3689 20.1798 18.0822 21.5231 17.7955 22.8565C17.4422 24.4898 17.1055 26.1265 16.7855 27.7665C16.4789 29.3398 16.8422 30.7431 17.8755 31.9765C18.8622 33.1565 20.1422 33.7965 21.7155 33.8965C23.8089 33.9898 25.6822 33.3965 27.3355 32.1165C28.8289 30.9498 29.7722 29.4565 30.1655 27.6365C30.4322 26.4165 30.6989 25.1931 30.9655 23.9665C31.4122 21.9065 31.8655 19.8465 32.3255 17.7865C32.5722 16.6998 32.7722 15.6031 32.9255 14.4965C32.9655 14.2165 32.8755 13.9698 32.6555 13.7565C32.2755 13.4098 31.8089 13.2731 31.2555 13.3465ZM46.4556 13.6165C45.9622 13.8698 45.6556 14.2931 45.5356 14.8865C44.7089 19.0598 43.8356 23.2231 42.9156 27.3765C41.6156 23.1098 40.3089 18.8431 38.9956 14.5765C38.7822 13.8898 38.3289 13.4798 37.6356 13.3465C37.6222 13.3465 37.6122 13.3465 37.6055 13.3465C37.5122 13.3398 37.4222 13.3365 37.3356 13.3365C36.1222 13.4965 35.3822 14.2198 35.1155 15.5065C34.0755 20.5198 33.0222 25.5298 31.9555 30.5365C31.8689 30.9431 31.9489 31.3131 32.1955 31.6465C32.2222 31.6865 32.2555 31.7198 32.2955 31.7465C32.9822 32.1931 33.6989 32.2298 34.4455 31.8565C34.8455 31.6498 35.0955 31.3298 35.1955 30.8965C35.5022 29.5298 35.8055 28.1598 36.1055 26.7865C36.1122 26.7598 36.1189 26.7131 36.1256 26.6465L37.5756 19.8065C38.8756 24.1398 40.1856 28.4698 41.5056 32.7965C41.6322 33.2165 41.8956 33.5231 42.2956 33.7165C42.5222 33.8165 42.7489 33.8731 42.9756 33.8865C43.1089 33.8931 43.2422 33.8998 43.3756 33.9065C44.3156 33.8465 44.9189 33.3265 45.1856 32.3465C45.3256 31.8531 45.4122 31.4231 45.4456 31.0565L48.8156 15.0565C49.0356 14.5498 48.9656 14.0998 48.6056 13.7065C48.5722 13.6665 48.5389 13.6331 48.5056 13.6065C48.4656 13.5798 48.4256 13.5598 48.3856 13.5465C47.7322 13.2865 47.0889 13.3098 46.4556 13.6165ZM75.3756 47.7665C75.2289 47.7665 75.0856 47.7665 74.9456 47.7665C72.8922 47.7331 70.8389 47.7131 68.7856 47.7065C68.3522 47.7065 68.0056 47.8765 67.7456 48.2165C67.1922 48.9431 67.1289 49.6831 67.5556 50.4365C67.7289 50.7365 67.9856 50.8865 68.3256 50.8865C68.4589 50.8865 68.5922 50.8865 68.7256 50.8865C70.6589 50.9065 72.5922 50.9298 74.5256 50.9565C75.5922 51.0431 76.2422 50.5465 76.4756 49.4665C76.5689 49.0398 76.4689 48.6198 76.1756 48.2065C75.9822 47.9331 75.7156 47.7865 75.3756 47.7665ZM69.2156 37.1465C67.2622 37.1798 65.5189 37.8098 63.9856 39.0365C62.4722 40.2631 61.5056 41.8131 61.0856 43.6865C60.5456 46.0931 60.0222 48.5065 59.5156 50.9265C59.0356 53.2065 59.6956 55.0598 61.4956 56.4865C62.5289 57.3065 63.7122 57.6998 65.0456 57.6665C67.2056 57.6198 69.1122 56.8731 70.7656 55.4265C71.3189 54.9331 71.7489 54.3631 72.0556 53.7165C72.3422 53.1165 72.2456 52.6031 71.7656 52.1765C71.2122 51.6965 70.6222 51.6665 69.9956 52.0865C69.2422 52.5998 68.5056 53.1531 67.7856 53.7465C67.4722 54.0065 67.1122 54.1998 66.7056 54.3265C65.1456 54.7998 63.9456 54.3531 63.1056 52.9865C62.8522 52.5731 62.7122 52.1131 62.6856 51.6065C62.6589 51.1865 62.6889 50.7731 62.7756 50.3665C63.2156 48.3331 63.6722 46.3098 64.1456 44.2965C64.2789 43.7098 64.5222 43.1665 64.8756 42.6665C66.0289 41.0265 67.5656 40.2765 69.4856 40.4165C69.8189 40.4831 70.1222 40.6265 70.3956 40.8465C71.3622 41.6331 71.7989 42.6865 71.7056 44.0065C71.6989 44.1265 71.7422 44.2331 71.8356 44.3265C72.3822 44.8198 73.0256 44.9398 73.7656 44.6865C74.6322 44.3998 75.0589 43.7831 75.0456 42.8365C75.0256 40.7098 74.1156 39.0931 72.3156 37.9865C71.3556 37.3998 70.3222 37.1198 69.2156 37.1465ZM58.3156 37.1165C57.4756 37.2698 56.9756 37.7798 56.8156 38.6465C56.5556 40.0265 56.2756 41.4065 55.9756 42.7865C55.3756 45.5731 54.7822 48.3631 54.1956 51.1565C52.9289 46.9898 51.6722 42.8198 50.4256 38.6465C50.1856 37.8331 49.6756 37.3398 48.8956 37.1665C48.7289 37.1131 48.5589 37.0898 48.3856 37.0965C47.9589 37.1431 47.5956 37.3198 47.2956 37.6265C47.2356 37.6865 47.1822 37.7531 47.1356 37.8265C46.6689 38.4731 46.3989 39.1998 46.3256 40.0065L42.9156 55.9065C42.6689 56.6065 42.8389 57.1298 43.4256 57.4765C43.7056 57.6298 44.0056 57.6865 44.3256 57.6465C44.5122 57.6531 44.7022 57.6398 44.8956 57.6065C44.9489 57.5865 45.0022 57.5698 45.0556 57.5565C45.6689 57.3631 46.0389 56.9565 46.1656 56.3365C47.0456 52.0898 47.9289 47.8465 48.8156 43.6065C50.1289 47.9265 51.4656 52.2431 52.8256 56.5565C52.9856 57.0765 53.3356 57.4198 53.8756 57.5865C54.1489 57.6531 54.4189 57.6931 54.6856 57.7065C55.5922 57.6131 56.1656 57.0798 56.4056 56.1065C56.5256 55.6265 56.6189 55.1865 56.6856 54.7865L60.1256 38.8565C60.3722 38.0231 60.1056 37.4665 59.3256 37.1865C59.1122 37.1198 58.8989 37.0865 58.6856 37.0865C58.5589 37.0931 58.4356 37.1031 58.3156 37.1165ZM61.4256 14.2765C60.6589 13.6298 59.7789 13.3098 58.7856 13.3165C57.1789 13.3298 55.5756 13.3465 53.9756 13.3665C52.3622 13.4865 51.3656 14.3298 50.9856 15.8965C50.0522 19.7031 49.1822 23.5231 48.3756 27.3565C48.2356 28.0165 48.4856 28.4665 49.1256 28.7065C49.7789 28.9465 50.3956 28.8898 50.9756 28.5365C51.3289 28.3165 51.5489 27.9965 51.6356 27.5765C52.3156 24.3631 53.0056 21.1498 53.7056 17.9365C53.9189 16.9231 54.5422 16.3865 55.5756 16.3265C56.4489 16.2531 57.2689 16.2831 58.0356 16.4165C59.1422 16.6431 59.6222 17.3231 59.4756 18.4565C59.4222 18.8831 59.2489 19.2598 58.9556 19.5865C58.0689 20.5798 56.9622 21.0065 55.6356 20.8665C55.2089 20.8798 54.8756 21.0598 54.6356 21.4065C54.2689 21.9331 54.1889 22.5065 54.3956 23.1265C54.5756 23.6731 54.9456 23.9665 55.5056 24.0065C56.4322 24.0331 57.2722 24.3065 58.0256 24.8265C58.4256 25.0998 58.6856 25.4698 58.8056 25.9365C59.0656 26.9498 58.8889 27.8931 58.2756 28.7665C57.3756 30.0398 56.1556 30.7598 54.6156 30.9265C53.9689 31.0265 53.2922 31.0565 52.5856 31.0165C51.2522 30.9565 49.8822 31.0065 48.4756 31.1665C48.3356 31.1865 48.2222 31.2531 48.1356 31.3665C47.5956 32.0465 47.5956 32.7165 48.1356 33.3765C48.3422 33.6298 48.5989 33.7865 48.9056 33.8465C49.2922 33.9265 49.6789 33.9665 50.0656 33.9665C51.8256 34.0798 53.5922 34.0631 55.3656 33.9165C56.0989 33.8098 56.7922 33.5865 57.4456 33.2465C59.3456 32.2731 60.7056 30.8065 61.5256 28.8465C62.2522 27.0998 62.2722 25.3598 61.5856 23.6265C61.5322 23.4998 61.4622 23.3831 61.3756 23.2765C61.0956 22.9098 60.7456 22.6498 60.3256 22.4965C61.9522 21.2565 62.8056 19.6165 62.8856 17.5765C62.9322 16.2431 62.4456 15.1431 61.4256 14.2765ZM75.5756 13.4465C75.1156 13.3598 74.6556 13.3165 74.1956 13.3165C72.2356 13.3631 70.4922 13.9965 68.9656 15.2165C67.4522 16.4298 66.4822 17.9665 66.0556 19.8265C65.5022 22.2265 64.9756 24.6365 64.4756 27.0565C64.0556 29.0765 64.5589 30.8031 65.9856 32.2365C66.9922 33.2498 68.2256 33.7765 69.6856 33.8165C71.7789 33.8698 73.6422 33.2365 75.2756 31.9165C76.1156 31.2365 76.8089 30.4265 77.3556 29.4865C77.7556 28.8131 78.0389 28.0931 78.2056 27.3265C78.5922 25.4931 78.9822 23.6631 79.3756 21.8365C81.0889 20.6365 82.7389 19.3531 84.3256 17.9865C84.5256 17.8198 84.6056 17.5965 84.5656 17.3165C84.5389 17.1431 84.4956 16.9698 84.4356 16.7965C84.4156 16.7498 84.3956 16.7065 84.3756 16.6665C83.8756 15.8198 83.2289 15.6731 82.4356 16.2265C81.9756 16.5331 81.5289 16.8598 81.0956 17.2065C80.7089 17.5265 80.3222 17.8465 79.9356 18.1665C79.8289 17.1065 79.4256 16.1565 78.7256 15.3165C77.9722 14.4031 77.0289 13.8031 75.8956 13.5165C75.7889 13.4898 75.6822 13.4665 75.5756 13.4465ZM72.2556 16.8565C72.7556 16.6365 73.2589 16.5165 73.7656 16.4965C75.2122 16.5631 76.1222 17.3098 76.4956 18.7365C76.6756 19.4031 76.6856 20.0765 76.5256 20.7565C74.7656 22.2765 72.7856 22.7198 70.5856 22.0865C70.1256 21.9598 69.8056 21.7165 69.6256 21.3565C69.3789 20.8565 69.3422 20.3365 69.5156 19.7965C69.9556 18.4165 70.8689 17.4365 72.2556 16.8565ZM67.7556 28.1165C67.6156 26.8965 67.7522 25.7231 68.1656 24.5965C70.0722 25.7031 72.0856 25.8765 74.2056 25.1165C74.7389 24.9298 75.2589 24.6998 75.7656 24.4265L75.3456 26.2965C74.8056 28.4831 73.4589 29.8898 71.3056 30.5165C70.1922 30.8231 69.2522 30.5565 68.4856 29.7165C68.0656 29.2631 67.8222 28.7298 67.7556 28.1165Z" fill="white"/>
</svg>
